<svg width="79" height="77" viewBox="0 0 79 77" fill="none" xmlns="http://www.w3.org/2000/svg">
<rect x="0.485657" width="78.4073" height="77" rx="38.5" fill="#D69422"/>
<path d="M54.1285 19.56C46.6502 20.952 39.954 24.408 34.5287 29.736C31.0584 33.192 30.9606 33.24 28.3701 33.24L25.7796 33.288L21.9183 37.944L18.1059 42.6L22.7492 42.744L27.3437 42.888L26.2684 45.624C24.9976 48.648 23.7757 54.216 24.2156 54.696C24.7043 55.128 30.3741 53.928 33.4534 52.68L36.2394 51.624L36.386 56.136L36.5326 60.696L41.567 56.808L46.5525 52.92V50.232C46.5525 47.64 46.6502 47.448 48.7031 45.624C55.2526 40.008 60.0426 30.312 60.3847 22.104L60.4825 19.08L59.0162 18.984C58.2341 18.936 56.0347 19.176 54.1285 19.56ZM51.4402 27.96C53.3953 29.88 52.0756 32.76 49.2407 32.76C47.3345 32.76 46.5525 31.992 46.5525 30.168C46.5525 27.336 49.4362 25.992 51.4402 27.96ZM43.2288 35.976C45.0862 37.608 43.7665 40.92 41.2737 40.92C38.6344 40.92 37.3147 37.944 39.0743 36.024C40.0518 34.968 42.0558 34.92 43.2288 35.976ZM32.8668 46.44C33.8933 47.496 33.9421 47.736 33.3067 48.312C32.5736 48.984 29.3965 50.184 29.1033 49.896C28.9078 49.656 29.9831 46.584 30.5696 45.816C31.2539 45 31.5471 45.096 32.8668 46.44Z" fill="white"/>
</svg>
